<?xml version="1.0" encoding="UTF-8" standalone="no"?>
<!-- Created with Inkscape (http://www.inkscape.org/) -->

<svg
   width="48mm"
   height="48.000004mm"
   viewBox="0 0 48 48.000004"
   version="1.1"
   id="svg1"
   xmlns="http://www.w3.org/2000/svg"
   xmlns:svg="http://www.w3.org/2000/svg">
  <defs
     id="defs1">
    <filter
       style="color-interpolation-filters:sRGB"
       id="filter10"
       x="-0.00051791684"
       y="-0.00074007128"
       width="1.0010358"
       height="1.0014801">
      <feGaussianBlur
         stdDeviation="0.0029779462"
         id="feGaussianBlur10" />
    </filter>
  </defs>
  <g
     id="layer1"
     transform="translate(-67.173204,-74.2582)">
    <rect
       style="fill:#333333;fill-opacity:1;stroke:none;stroke-width:1.76878;stroke-linejoin:round;stroke-dasharray:none;stroke-opacity:1"
       id="rect10"
       width="48"
       height="48"
       x="67.173203"
       y="74.258202"
       rx="3.2164404"
       ry="3.8907304" />
    <path
       style="color:#000000;-inkscape-font-specification:'Apple Symbols, Normal';fill:#ffffff;stroke-linecap:round;stroke-linejoin:round;-inkscape-stroke:none;filter:url(#filter10)"
       d="m 89.981169,91.842222 c -1.535494,0 -3.014642,0.61487 -4.029297,1.73633 -0.136479,0.15084 -0.176838,0.36473 -0.292968,0.52929 -0.327067,-0.60469 -0.823382,-1.13986 -1.429688,-1.48632 -0.743094,-0.42463 -1.50389,-0.50782 -2.349609,-0.50782 h -2.820313 a 1.5876587,1.5876587 0 0 0 -1.58789,1.58789 v 9.111338 a 1.5876587,1.5876587 0 0 0 1.58789,1.58789 H 80.2507 a 1.5876587,1.5876587 0 0 0 1.587891,-1.58789 v -0.50586 l 0.652344,1.24414 a 1.5876587,1.5876587 0 0 0 1.40625,0.84961 h 1.355469 a 1.5876587,1.5876587 0 0 0 1.376953,-0.97852 c 0.955352,0.75199 2.09953,1.25196 3.34375,1.25196 0.735293,0 1.444559,-0.11409 2.101562,-0.38477 0.690542,-0.27922 1.312973,-0.77097 1.730469,-1.39258 a 1.5876587,1.5876587 0 0 0 0.0059,-0.01 c 0.37648,-0.56872 0.634725,-1.24974 0.634725,-1.97437 v -0.0586 a 1.5876587,1.5876587 0 0 0 -1.585938,-1.587886 h -1.091796 a 1.5876587,1.5876587 0 0 0 -1.564454,1.564456 c 0.03061,-0.0881 0.07728,-0.20365 0.04883,-0.17579 0.188241,-0.18432 0.179344,-0.0664 -0.238282,-0.0664 -0.499572,0 -0.526287,-0.0328 -0.730468,-0.35352 -0.257781,-0.416296 -0.44336,-1.039276 -0.44336,-1.976556 0,-0.92884 0.183644,-1.5514 0.445313,-1.9707 a 1.5876587,1.5876587 0 0 0 0.0039,-0.006 c 0.203526,-0.32859 0.2224,-0.35547 0.734375,-0.35547 0.211465,0 0.3182,0.0331 0.337891,0.041 0.0073,0.003 -0.06198,-0.0511 -0.111329,-0.10547 -0.01134,-0.0202 -0.0317,-0.10131 -0.04883,-0.17969 a 1.5876587,1.5876587 0 0 0 1.566407,1.56641 h 1.091796 a 1.5876587,1.5876587 0 0 0 1.585945,-1.58786 v -0.0566 c 0,-0.72372 -0.26149,-1.39283 -0.632813,-1.955082 -0.413949,-0.63255 -1.038506,-1.14084 -1.738281,-1.42383 -0.654759,-0.26976 -1.362409,-0.38281 -2.09375,-0.38281 z m -6.458984,1.68359 0.02148,0.0137 c -0.004,-0.003 -0.0077,7.7e-4 -0.01172,-0.002 -0.0042,-0.003 -0.0056,-0.009 -0.0098,-0.0117 z m 9.330078,0.52735 0.02734,0.041 c -0.0047,-0.007 -0.01473,-0.009 -0.01953,-0.0156 -6.72e-4,-9.8e-4 6.74e-4,-0.003 0,-0.004 -0.0041,-0.006 -0.0036,-0.0155 -0.0078,-0.0215 z m -8.292969,0.609382 0.01367,0.0273 c -0.0021,-0.004 -0.0076,-0.006 -0.0098,-0.01 -0.0029,-0.005 -9.88e-4,-0.0121 -0.0039,-0.0176 z"
       id="path12"
       transform="matrix(1.8832179,0,0,1.8832179,-70.705776,-86.783401)" />
  </g>
</svg>
